<svg version="1.1" xmlns="http://www.w3.org/2000/svg" viewBox="0 0 814.0001220703125 717.9999694824219" width="814.0001220703125" height="717.9999694824219">
  <!-- svg-source:excalidraw -->
  
  <defs>
    <style class="style-fonts">
      @font-face {
        font-family: "Virgil";
        src: url("https://excalidraw.com/Virgil.woff2");
      }
      @font-face {
        font-family: "Cascadia";
        src: url("https://excalidraw.com/Cascadia.woff2");
      }
      @font-face {
        font-family: "Assistant";
        src: url("https://excalidraw.com/Assistant-Regular.woff2");
      }
    </style>
    
  </defs>
  <rect x="0" y="0" width="814.0001220703125" height="717.9999694824219" fill="#ffffff"></rect><g transform="translate(394.0000305175781 10) rotate(0 42.33331298828125 12.5)"><text x="0" y="17.52" font-family="Virgil, Segoe UI Emoji" font-size="20px" fill="#1e1e1e" text-anchor="start" style="white-space: pre;" direction="ltr" dominant-baseline="alphabetic">Input X</text></g><g stroke-linecap="round" transform="translate(293.3333435058594 89.33334350585938) rotate(0 136.33334350585938 34.66667175292969)"><path d="M17.33 0 C80.73 0.15, 146.02 2.62, 255.33 0 M17.33 0 C71.79 -0.67, 126.36 -1.69, 255.33 0 M255.33 0 C265.77 0.45, 272.32 4.19, 272.67 17.33 M255.33 0 C266.75 1.31, 273.05 5.33, 272.67 17.33 M272.67 17.33 C272.12 25.33, 271.59 30.73, 272.67 52 M272.67 17.33 C272.39 25.94, 272.92 32.98, 272.67 52 M272.67 52 C273.72 64.02, 264.9 68.67, 255.33 69.33 M272.67 52 C273.36 63.7, 268.7 68.2, 255.33 69.33 M255.33 69.33 C197.39 71.62, 140.67 71.24, 17.33 69.33 M255.33 69.33 C188.32 71.79, 122.22 70.35, 17.33 69.33 M17.33 69.33 C5.97 68.33, -0.63 64.32, 0 52 M17.33 69.33 C6.37 67.62, -0.86 64.42, 0 52 M0 52 C-1.99 41.77, 0.25 29, 0 17.33 M0 52 C0.51 40.06, 1.14 25.95, 0 17.33 M0 17.33 C-0.14 5.01, 6.95 -0.3, 17.33 0 M0 17.33 C-1.62 7.48, 7.44 0.63, 17.33 0" stroke="#1e1e1e" stroke-width="2" fill="none"></path></g><g transform="translate(394.83670806884766 111.50001525878906) rotate(0 34.829978942871094 12.5)"><text x="34.829978942871094" y="17.52" font-family="Virgil, Segoe UI Emoji" font-size="20px" fill="#1e1e1e" text-anchor="middle" style="white-space: pre;" direction="ltr" dominant-baseline="alphabetic">Layer 1</text></g><g stroke-linecap="round" transform="translate(291.66656494140625 221.3333282470703) rotate(0 136.33334350585938 34.66667175292969)"><path d="M17.33 0 C65.94 0.8, 114.23 -0.13, 255.33 0 M17.33 0 C84.22 -0.48, 152.55 0.27, 255.33 0 M255.33 0 C266 1.23, 272.14 6.44, 272.67 17.33 M255.33 0 C265.78 2.01, 270.48 5, 272.67 17.33 M272.67 17.33 C271.47 30.75, 270.89 40.27, 272.67 52 M272.67 17.33 C272.64 31.04, 271.77 42.67, 272.67 52 M272.67 52 C273.48 65.15, 267.53 68.7, 255.33 69.33 M272.67 52 C271.93 63.05, 268.03 67.59, 255.33 69.33 M255.33 69.33 C161.5 69.65, 69.28 69.69, 17.33 69.33 M255.33 69.33 C166.15 67.27, 75.25 68.4, 17.33 69.33 M17.33 69.33 C7.03 69.77, 1.42 63.64, 0 52 M17.33 69.33 C5.28 67.7, -1.91 64.48, 0 52 M0 52 C1.5 37.43, -0.97 27.33, 0 17.33 M0 52 C-0.9 43.27, -0.79 35.1, 0 17.33 M0 17.33 C-0.06 6.92, 6.72 -1.76, 17.33 0 M0 17.33 C-2.23 6.52, 5.12 1.09, 17.33 0" stroke="#1e1e1e" stroke-width="2" fill="none"></path></g><g transform="translate(389.43993377685547 243.5) rotate(0 38.559974670410156 12.5)"><text x="38.559974670410156" y="17.52" font-family="Virgil, Segoe UI Emoji" font-size="20px" fill="#1e1e1e" text-anchor="middle" style="white-space: pre;" direction="ltr" dominant-baseline="alphabetic">Layer N</text></g><g stroke-linecap="round"><g transform="translate(432.3045084327946 161.33334350585938) rotate(0 0.23665715745642046 28.666656494140625)"><path d="M-0.34 -1.07 C-0.03 8.54, 0.92 47.42, 1.04 57.17 M1.68 0.99 C1.96 10.83, 0.75 48.98, 0.39 58.62" stroke="#1e1e1e" stroke-width="2" fill="none"></path></g><g transform="translate(432.3045084327946 161.33334350585938) rotate(0 0.23665715745642046 28.666656494140625)"><path d="M-7.38 34.86 C-7.46 41.3, -4.17 45.65, 0.39 58.62 M-7.38 34.86 C-4.6 41.79, -1.56 48.8, 0.39 58.62" stroke="#1e1e1e" stroke-width="2" fill="none"></path></g><g transform="translate(432.3045084327946 161.33334350585938) rotate(0 0.23665715745642046 28.666656494140625)"><path d="M9.71 35.42 C5.69 41.68, 5.04 45.9, 0.39 58.62 M9.71 35.42 C7.22 42.17, 5 49.01, 0.39 58.62" stroke="#1e1e1e" stroke-width="2" fill="none"></path></g></g><mask></mask><g stroke-linecap="round"><g transform="translate(431.8162098409889 40.666656494140625) rotate(0 0.03961881391046518 23.666671752929688)"><path d="M0.04 0.53 C0.08 8.42, 0.04 39.61, 0.11 47.35 M-0.6 0.33 C-0.62 8.31, -0.46 40.21, -0.3 48.06" stroke="#1e1e1e" stroke-width="2" fill="none"></path></g><g transform="translate(431.8162098409889 40.666656494140625) rotate(0 0.03961881391046518 23.666671752929688)"><path d="M-8.64 25.91 C-5.41 31.99, -4.08 38.69, -0.3 48.06 M-8.64 25.91 C-6.4 31.37, -4.38 36.17, -0.3 48.06" stroke="#1e1e1e" stroke-width="2" fill="none"></path></g><g transform="translate(431.8162098409889 40.666656494140625) rotate(0 0.03961881391046518 23.666671752929688)"><path d="M7.54 25.73 C6.38 31.86, 3.31 38.61, -0.3 48.06 M7.54 25.73 C5.93 31.31, 4.1 36.15, -0.3 48.06" stroke="#1e1e1e" stroke-width="2" fill="none"></path></g></g><mask></mask><g transform="translate(448.6667785644531 162) rotate(0 25.33331298828125 17.5)"><text x="0" y="24.528" font-family="Virgil, Segoe UI Emoji" font-size="28px" fill="#1e1e1e" text-anchor="start" style="white-space: pre;" direction="ltr" dominant-baseline="alphabetic">...</text></g><g stroke-linecap="round" transform="translate(323.66680908203125 355.33335876464844) rotate(0 101.33334350585938 34.66667175292969)"><path d="M17.33 0 C82.17 2.08, 150.01 -0.47, 185.33 0 M17.33 0 C55.85 0.24, 93.97 0.87, 185.33 0 M185.33 0 C197.22 0.58, 201.62 5.13, 202.67 17.33 M185.33 0 C197.5 -2.14, 200.39 5.07, 202.67 17.33 M202.67 17.33 C204.01 25.32, 203.65 37.35, 202.67 52 M202.67 17.33 C202.79 29.39, 202.5 43.38, 202.67 52 M202.67 52 C201.13 63.42, 195.55 69.25, 185.33 69.33 M202.67 52 C203.87 63.49, 197.82 70.91, 185.33 69.33 M185.33 69.33 C126.08 68.18, 68.08 69.55, 17.33 69.33 M185.33 69.33 C127.26 69.98, 71.31 68.46, 17.33 69.33 M17.33 69.33 C3.88 70.88, 1.26 63.69, 0 52 M17.33 69.33 C6.64 67.99, 0.99 64.86, 0 52 M0 52 C-2.05 46.06, -0.18 36.87, 0 17.33 M0 52 C0.85 41.08, -0.41 30.23, 0 17.33 M0 17.33 C0.92 5.36, 4.33 -0.48, 17.33 0 M0 17.33 C1.4 3.75, 7.1 0.48, 17.33 0" stroke="#1e1e1e" stroke-width="2" fill="none"></path></g><g transform="translate(359.4202194213867 377.5000305175781) rotate(0 65.5799331665039 12.5)"><text x="65.5799331665039" y="17.52" font-family="Virgil, Segoe UI Emoji" font-size="20px" fill="#1e1e1e" text-anchor="middle" style="white-space: pre;" direction="ltr" dominant-baseline="alphabetic">Predictions Y'</text></g><g stroke-linecap="round"><g transform="translate(431.30974150010115 291.89050700012126) rotate(0 0.9033441691751705 31.666656494140625)"><path d="M-0.47 -0.17 C-0.22 10.31, 0.46 52.57, 0.67 63.3 M1.49 -1.31 C2.16 9.34, 2.51 54.21, 2.78 64.83" stroke="#1e1e1e" stroke-width="2" fill="none"></path></g><g transform="translate(431.30974150010115 291.89050700012126) rotate(0 0.9033441691751705 31.666656494140625)"><path d="M-6.15 41.47 C-4.27 45.04, -1.96 50.63, 2.78 64.83 M-6.15 41.47 C-3.36 50.87, 0.1 59.69, 2.78 64.83" stroke="#1e1e1e" stroke-width="2" fill="none"></path></g><g transform="translate(431.30974150010115 291.89050700012126) rotate(0 0.9033441691751705 31.666656494140625)"><path d="M10.95 41.2 C8.85 44.76, 7.18 50.41, 2.78 64.83 M10.95 41.2 C7.32 50.58, 4.37 59.5, 2.78 64.83" stroke="#1e1e1e" stroke-width="2" fill="none"></path></g></g><mask></mask><g stroke-linecap="round" transform="translate(488.0000305175781 488.0000305175781) rotate(0 70.6666259765625 54.166656494140625)"><path d="M60.44 -0.24 C70.41 -2.3, 82.68 -0.07, 92.82 2.88 C102.96 5.83, 113.81 11.53, 121.3 17.46 C128.8 23.39, 134.82 30.47, 137.8 38.45 C140.78 46.44, 141.3 56.86, 139.19 65.36 C137.08 73.87, 131.81 83.16, 125.12 89.47 C118.43 95.78, 109.17 100.21, 99.04 103.25 C88.91 106.28, 75.54 108.36, 64.36 107.65 C53.18 106.95, 41.13 103.4, 31.98 99.01 C22.82 94.62, 14.73 88.51, 9.44 81.31 C4.14 74.1, 0.55 64.32, 0.21 55.77 C-0.12 47.22, 2.75 37.51, 7.42 30 C12.08 22.49, 18.8 15.71, 28.22 10.71 C37.64 5.7, 57.29 1.61, 63.94 -0.04 C70.6 -1.7, 68.05 -0.16, 68.17 0.79 M38.43 4.98 C47.01 0.47, 60.26 -0.79, 71.25 -0.7 C82.25 -0.61, 94.76 1.48, 104.4 5.52 C114.04 9.56, 123.04 16.21, 129.08 23.54 C135.13 30.87, 139.34 40.9, 140.67 49.5 C141.99 58.1, 141.1 67.32, 137.05 75.16 C133 83, 124.91 91.11, 116.37 96.54 C107.83 101.97, 96.6 106.09, 85.81 107.72 C75.02 109.35, 61.98 108.85, 51.64 106.3 C41.29 103.76, 31.52 97.96, 23.73 92.45 C15.94 86.93, 8.62 81.07, 4.89 73.22 C1.16 65.38, 0.01 53.81, 1.36 45.36 C2.71 36.91, 6.69 29.19, 12.99 22.51 C19.29 15.83, 34.47 8.05, 39.14 5.29 C43.81 2.53, 40.41 5, 41.02 5.93" stroke="#1e1e1e" stroke-width="2" fill="none"></path></g><g transform="translate(519.5378405474032 517.3650768905096) rotate(0 39.15996551513672 25)"><text x="39.15996551513672" y="17.52" font-family="Virgil, Segoe UI Emoji" font-size="20px" fill="#1e1e1e" text-anchor="middle" style="white-space: pre;" direction="ltr" dominant-baseline="alphabetic">Loss </text><text x="39.15996551513672" y="42.519999999999996" font-family="Virgil, Segoe UI Emoji" font-size="20px" fill="#1e1e1e" text-anchor="middle" style="white-space: pre;" direction="ltr" dominant-baseline="alphabetic">Function</text></g><g stroke-linecap="round" transform="translate(601.3334350585938 355.99998474121094) rotate(0 101.33334350585938 34.66667175292969)"><path d="M17.33 0 C81.87 1.22, 149.29 -0.64, 185.33 0 M17.33 0 C64.51 1.73, 109.08 2.26, 185.33 0 M185.33 0 C197.94 0.6, 203.55 7.43, 202.67 17.33 M185.33 0 C198.36 0.14, 203.95 5.87, 202.67 17.33 M202.67 17.33 C201.68 29.7, 204.11 40.59, 202.67 52 M202.67 17.33 C202.97 28.68, 202.2 38.27, 202.67 52 M202.67 52 C202.4 62.75, 195.81 68.15, 185.33 69.33 M202.67 52 C200.82 64.17, 196.75 70.21, 185.33 69.33 M185.33 69.33 C144.71 66.24, 105.75 67.11, 17.33 69.33 M185.33 69.33 C145.32 69.3, 103.7 68.27, 17.33 69.33 M17.33 69.33 C6.93 69.56, 0.75 62.64, 0 52 M17.33 69.33 C3.62 69.34, 0.87 62.23, 0 52 M0 52 C-1.68 45.14, -0.82 38.22, 0 17.33 M0 52 C0.3 44.13, -0.07 36.05, 0 17.33 M0 17.33 C1.37 4.73, 5.96 1.64, 17.33 0 M0 17.33 C-0.36 5.79, 5.73 0.58, 17.33 0" stroke="#1e1e1e" stroke-width="2" fill="none"></path></g><g transform="translate(651.9368209838867 378.1666564941406) rotate(0 50.729957580566406 12.5)"><text x="50.729957580566406" y="17.52" font-family="Virgil, Segoe UI Emoji" font-size="20px" fill="#1e1e1e" text-anchor="middle" style="white-space: pre;" direction="ltr" dominant-baseline="alphabetic">Targets Y</text></g><g stroke-linecap="round"><g transform="translate(434.0000305175781 424.6666564941406) rotate(0 56.3333740234375 32)"><path d="M0.14 0.4 C18.73 11.32, 93.06 53.71, 111.9 64.42 M-1.24 -0.44 C17.7 10.22, 95.23 52, 114.22 62.52" stroke="#1e1e1e" stroke-width="2" fill="none"></path></g><g transform="translate(434.0000305175781 424.6666564941406) rotate(0 56.3333740234375 32)"><path d="M89.5 58.77 C98.28 58.71, 106.47 62.09, 114.22 62.52 M89.5 58.77 C97.8 60.67, 108.09 61.78, 114.22 62.52" stroke="#1e1e1e" stroke-width="2" fill="none"></path></g><g transform="translate(434.0000305175781 424.6666564941406) rotate(0 56.3333740234375 32)"><path d="M97.69 43.76 C103.63 48.66, 109.12 56.99, 114.22 62.52 M97.69 43.76 C103 50.96, 110.37 57.42, 114.22 62.52" stroke="#1e1e1e" stroke-width="2" fill="none"></path></g></g><mask></mask><g stroke-linecap="round"><g transform="translate(698.6667785644531 422.0000305175781) rotate(0 -58 33.666656494140625)"><path d="M-0.41 1.16 C-19.78 12.24, -96.79 56.06, -116.07 67.28 M1.58 0.73 C-17.98 11.93, -97.31 57.79, -117.05 68.78" stroke="#1e1e1e" stroke-width="2" fill="none"></path></g><g transform="translate(698.6667785644531 422.0000305175781) rotate(0 -58 33.666656494140625)"><path d="M-100.86 49.73 C-103.91 55.6, -111.07 61.64, -117.05 68.78 M-100.86 49.73 C-107.71 57.27, -113.82 64.18, -117.05 68.78" stroke="#1e1e1e" stroke-width="2" fill="none"></path></g><g transform="translate(698.6667785644531 422.0000305175781) rotate(0 -58 33.666656494140625)"><path d="M-92.4 64.6 C-98.23 65.73, -108.07 67.07, -117.05 68.78 M-92.4 64.6 C-102.56 66.35, -111.99 67.43, -117.05 68.78" stroke="#1e1e1e" stroke-width="2" fill="none"></path></g></g><mask></mask><g stroke-linecap="round" transform="translate(484.6667785644531 639.3333435058594) rotate(0 74.66668701171875 34.33331298828125)"><path d="M17.17 0 C46.36 1.46, 74.17 1.51, 132.17 0 M17.17 0 C61.8 -0.13, 108.25 0.57, 132.17 0 M132.17 0 C143.38 -0.54, 148.47 6.56, 149.33 17.17 M132.17 0 C145.5 1.97, 148.99 6.2, 149.33 17.17 M149.33 17.17 C148.03 26.78, 148.58 37.24, 149.33 51.5 M149.33 17.17 C149.18 24.86, 149.1 34.91, 149.33 51.5 M149.33 51.5 C150.11 64.18, 143.33 66.86, 132.17 68.67 M149.33 51.5 C148.68 62.77, 141.91 68.8, 132.17 68.67 M132.17 68.67 C104.66 67.26, 71.82 69.68, 17.17 68.67 M132.17 68.67 C104.64 69.38, 74.64 69.15, 17.17 68.67 M17.17 68.67 C6.2 69.8, 1.14 63.15, 0 51.5 M17.17 68.67 C5.85 67.76, 1.52 61.26, 0 51.5 M0 51.5 C0.58 38.03, -1.72 25.82, 0 17.17 M0 51.5 C0.92 43.88, 0.89 36.99, 0 17.17 M0 17.17 C0.79 7.09, 5.86 1.62, 17.17 0 M0 17.17 C1.83 4.2, 7.5 -1.96, 17.17 0" stroke="#1e1e1e" stroke-width="2" fill="none"></path></g><g transform="translate(505.5335159301758 661.1666564941406) rotate(0 53.799949645996094 12.5)"><text x="53.799949645996094" y="17.52" font-family="Virgil, Segoe UI Emoji" font-size="20px" fill="#1e1e1e" text-anchor="middle" style="white-space: pre;" direction="ltr" dominant-baseline="alphabetic">Loss Score</text></g><g stroke-linecap="round"><g transform="translate(558.9594662839047 597.8966901138426) rotate(0 0.40043990752963055 20.218326696008376)"><path d="M0.22 -0.46 C0.27 6.27, 0.37 33.54, 0.54 40.34 M-0.32 0.49 C-0.4 7.31, -0.27 34.26, -0.02 40.99" stroke="#1e1e1e" stroke-width="2" fill="none"></path></g><g transform="translate(558.9594662839047 597.8966901138426) rotate(0 0.40043990752963055 20.218326696008376)"><path d="M-7.28 22.11 C-5.58 28.25, -2.37 36.17, -0.02 40.99 M-7.28 22.11 C-5.5 27.49, -3.4 32.5, -0.02 40.99" stroke="#1e1e1e" stroke-width="2" fill="none"></path></g><g transform="translate(558.9594662839047 597.8966901138426) rotate(0 0.40043990752963055 20.218326696008376)"><path d="M6.55 21.86 C3.4 28.11, 1.75 36.12, -0.02 40.99 M6.55 21.86 C4.48 27.31, 2.72 32.38, -0.02 40.99" stroke="#1e1e1e" stroke-width="2" fill="none"></path></g></g><mask></mask><g stroke-linecap="round" transform="translate(45.333404541015625 466.6666564941406) rotate(0 71.66665649414062 54.33331298828125)"><path d="M43.36 5.31 C52.41 1.38, 64.4 0.31, 75.47 0.75 C86.53 1.19, 99.97 3.63, 109.73 7.96 C119.49 12.29, 128.32 19.51, 134.03 26.75 C139.74 33.99, 143.61 43.1, 144 51.41 C144.4 59.72, 141.12 68.9, 136.4 76.6 C131.68 84.31, 124.46 92.28, 115.67 97.64 C106.88 102.99, 94.5 107.16, 83.66 108.71 C72.82 110.27, 60.96 109.76, 50.6 106.95 C40.24 104.15, 29.53 97.99, 21.5 91.87 C13.47 85.76, 5.83 78.17, 2.4 70.25 C-1.03 62.33, -1.25 52.77, 0.92 44.33 C3.09 35.89, 8.14 26.35, 15.41 19.6 C22.68 12.85, 39.47 6.43, 44.56 3.82 C49.65 1.21, 45.43 3, 45.95 3.93 M57.34 -0.01 C67.96 -2.27, 83.03 1.11, 93.87 3.81 C104.71 6.51, 114.7 10.76, 122.38 16.18 C130.06 21.6, 136.76 28.55, 139.96 36.33 C143.16 44.11, 143.49 54.08, 141.58 62.85 C139.68 71.63, 135.31 82.12, 128.51 88.97 C121.71 95.83, 111.05 100.56, 100.77 104.01 C90.49 107.46, 77.86 110.34, 66.85 109.69 C55.84 109.05, 43.95 104.56, 34.71 100.14 C25.48 95.71, 17.24 90.02, 11.42 83.16 C5.6 76.31, 0.94 67.63, -0.19 59.03 C-1.33 50.42, 0.03 39.22, 4.62 31.52 C9.22 23.81, 18.31 17.86, 27.38 12.78 C36.46 7.7, 54.03 2.62, 59.09 1.05 C64.15 -0.52, 57.77 2.49, 57.74 3.36" stroke="#1e1e1e" stroke-width="2" fill="none"></path></g><g transform="translate(72.78413473341686 508.58051542407713) rotate(0 44.039947509765625 12.5)"><text x="44.039947509765625" y="17.52" font-family="Virgil, Segoe UI Emoji" font-size="20px" fill="#1e1e1e" text-anchor="middle" style="white-space: pre;" direction="ltr" dominant-baseline="alphabetic">Optimizer</text></g><g stroke-linecap="round"><g transform="translate(483.3334045410156 676.2393236176702) rotate(0 -146.67509278141017 -79.3071852869142)"><path d="M0.49 -0.4 C-48.36 -26.91, -244.16 -132.19, -293.12 -158.47 M-0.71 -1.66 C-49.69 -28, -245.06 -130.45, -293.94 -156.86" stroke="#1e1e1e" stroke-width="2" fill="none"></path></g><g transform="translate(483.3334045410156 676.2393236176702) rotate(0 -146.67509278141017 -79.3071852869142)"><path d="M-269.18 -153.39 C-277.24 -153.93, -283.7 -155.2, -293.94 -156.86 M-269.18 -153.39 C-277.73 -155.58, -287.09 -156.9, -293.94 -156.86" stroke="#1e1e1e" stroke-width="2" fill="none"></path></g><g transform="translate(483.3334045410156 676.2393236176702) rotate(0 -146.67509278141017 -79.3071852869142)"><path d="M-277.21 -138.29 C-282.95 -143.36, -287.02 -149.12, -293.94 -156.86 M-277.21 -138.29 C-282.93 -145.62, -289.53 -152.14, -293.94 -156.86" stroke="#1e1e1e" stroke-width="2" fill="none"></path></g></g><mask></mask><g stroke-linecap="round" transform="translate(12.0001220703125 223.3332977294922) rotate(0 101.33334350585938 34.66667175292969)"><path d="M17.33 0 C53.74 1.57, 86.61 0.08, 185.33 0 M17.33 0 C72.93 0.42, 129.7 0.76, 185.33 0 M185.33 0 C197.45 -0.11, 203.19 6.62, 202.67 17.33 M185.33 0 C197.97 -0.29, 204.5 5.5, 202.67 17.33 M202.67 17.33 C203.42 27.39, 201.35 39.32, 202.67 52 M202.67 17.33 C202.09 27.54, 202.19 35.49, 202.67 52 M202.67 52 C200.84 61.67, 196.89 68.61, 185.33 69.33 M202.67 52 C204.62 64.17, 196.62 67.21, 185.33 69.33 M185.33 69.33 C120.46 66.48, 58.07 68.72, 17.33 69.33 M185.33 69.33 C129.93 69.85, 73.12 70.46, 17.33 69.33 M17.33 69.33 C4.74 70.61, -1.93 61.72, 0 52 M17.33 69.33 C5.64 69.14, 0.82 61.86, 0 52 M0 52 C-0.7 38.31, -1.36 27.19, 0 17.33 M0 52 C1.17 39.8, 0.17 26.44, 0 17.33 M0 17.33 C-0.71 7.69, 6.17 0.07, 17.33 0 M0 17.33 C0.92 7.89, 5.54 -1.92, 17.33 0" stroke="#1e1e1e" stroke-width="2" fill="none"></path></g><g transform="translate(65.7435073852539 245.49996948242188) rotate(0 47.58995819091797 12.5)"><text x="47.58995819091797" y="17.52" font-family="Virgil, Segoe UI Emoji" font-size="20px" fill="#1e1e1e" text-anchor="middle" style="white-space: pre;" direction="ltr" dominant-baseline="alphabetic">Weights N</text></g><g stroke-linecap="round" transform="translate(10 88.00004577636719) rotate(0 101.33334350585938 34.66667175292969)"><path d="M17.33 0 C64.99 -3.02, 111.17 -1.05, 185.33 0 M17.33 0 C67.65 -1.55, 117.22 -1.87, 185.33 0 M185.33 0 C197.14 -0.61, 203.71 5.37, 202.67 17.33 M185.33 0 C196.77 2.3, 200.76 6.43, 202.67 17.33 M202.67 17.33 C204.26 28.59, 204.01 38.03, 202.67 52 M202.67 17.33 C201.87 26.48, 201.94 37.23, 202.67 52 M202.67 52 C202.28 63.26, 196.7 69.27, 185.33 69.33 M202.67 52 C204.86 63.89, 195.48 68.42, 185.33 69.33 M185.33 69.33 C151.7 66.85, 117.18 66.81, 17.33 69.33 M185.33 69.33 C144.08 68.5, 101.38 69.29, 17.33 69.33 M17.33 69.33 C5.01 68.57, -0.77 61.68, 0 52 M17.33 69.33 C7.2 67.84, 0.68 62.14, 0 52 M0 52 C-1.39 40.56, 1.35 29.47, 0 17.33 M0 52 C-0.63 39.49, 0.57 26.5, 0 17.33 M0 17.33 C-1.72 4.2, 7.16 0.96, 17.33 0 M0 17.33 C1.46 3.53, 4.47 1.97, 17.33 0" stroke="#1e1e1e" stroke-width="2" fill="none"></path></g><g transform="translate(67.47338104248047 110.16671752929688) rotate(0 43.859962463378906 12.5)"><text x="43.859962463378906" y="17.52" font-family="Virgil, Segoe UI Emoji" font-size="20px" fill="#1e1e1e" text-anchor="middle" style="white-space: pre;" direction="ltr" dominant-baseline="alphabetic">Weights 1</text></g><g stroke-linecap="round"><g transform="translate(113.09519841422662 465.4953099560314) rotate(0 -0.08456326302552952 -85.91433436033992)"><path d="M-1.04 0.49 C-1.19 -28.17, 0.04 -143.29, 0.13 -171.87 M0.62 -0.29 C0.24 -28.77, -0.31 -141.59, -0.66 -170.35" stroke="#1e1e1e" stroke-width="2" fill="none"></path></g><g transform="translate(113.09519841422662 465.4953099560314) rotate(0 -0.08456326302552952 -85.91433436033992)"><path d="M8.08 -146.93 C5.47 -155.63, 1.18 -165.85, -0.66 -170.35 M8.08 -146.93 C5.37 -156.39, 0.65 -163.55, -0.66 -170.35" stroke="#1e1e1e" stroke-width="2" fill="none"></path></g><g transform="translate(113.09519841422662 465.4953099560314) rotate(0 -0.08456326302552952 -85.91433436033992)"><path d="M-9.02 -146.79 C-4.97 -155.39, -2.6 -165.68, -0.66 -170.35 M-9.02 -146.79 C-5.36 -156.26, -3.72 -163.47, -0.66 -170.35" stroke="#1e1e1e" stroke-width="2" fill="none"></path></g></g><mask></mask><g stroke-linecap="round"><g transform="translate(216.66671752929688 258.6666564941406) rotate(0 38 -0.33331298828125)"><path d="M0.17 -0.48 C12.62 -0.44, 63.35 -0.92, 75.79 -0.76 M-1.2 -1.78 C10.98 -1.45, 61.69 0.65, 74.74 0.73" stroke="#1e1e1e" stroke-width="2" fill="none"></path></g><g transform="translate(216.66671752929688 258.6666564941406) rotate(0 38 -0.33331298828125)"><path d="M51.03 8.67 C59.6 5.18, 69.56 0.42, 74.74 0.73 M51.03 8.67 C60.19 4.92, 69.92 2.18, 74.74 0.73" stroke="#1e1e1e" stroke-width="2" fill="none"></path></g><g transform="translate(216.66671752929688 258.6666564941406) rotate(0 38 -0.33331298828125)"><path d="M51.48 -8.43 C59.73 -5.21, 69.51 -3.25, 74.74 0.73 M51.48 -8.43 C60.54 -5.4, 70.09 -1.36, 74.74 0.73" stroke="#1e1e1e" stroke-width="2" fill="none"></path></g></g><mask></mask><g stroke-linecap="round"><g transform="translate(212.00003051757812 122.66665649414062) rotate(0 41.333343505859375 0)"><path d="M-0.48 -0.23 C13.19 -0.31, 67.9 0.46, 81.79 0.36 M1.46 -1.39 C15.54 -1.92, 70.59 -1.81, 84.04 -1.57" stroke="#1e1e1e" stroke-width="2" fill="none"></path></g><g transform="translate(212.00003051757812 122.66665649414062) rotate(0 41.333343505859375 0)"><path d="M60.48 6.79 C66.54 3.12, 74.03 2.55, 84.04 -1.57 M60.48 6.79 C66.61 4.23, 71.1 2.13, 84.04 -1.57" stroke="#1e1e1e" stroke-width="2" fill="none"></path></g><g transform="translate(212.00003051757812 122.66665649414062) rotate(0 41.333343505859375 0)"><path d="M60.62 -10.31 C66.76 -9.26, 74.21 -5.11, 84.04 -1.57 M60.62 -10.31 C66.81 -8.92, 71.27 -7.07, 84.04 -1.57" stroke="#1e1e1e" stroke-width="2" fill="none"></path></g></g><mask></mask><g transform="translate(25.333404541015625 360.6666564941406) rotate(0 40 25)"><text x="0" y="17.52" font-family="Virgil, Segoe UI Emoji" font-size="20px" fill="#1e1e1e" text-anchor="start" style="white-space: pre;" direction="ltr" dominant-baseline="alphabetic">Weight </text><text x="0" y="42.519999999999996" font-family="Virgil, Segoe UI Emoji" font-size="20px" fill="#1e1e1e" text-anchor="start" style="white-space: pre;" direction="ltr" dominant-baseline="alphabetic">Update</text></g></svg>